# xmcd
#
# Track frame offsets: 
#        150
#        17929
#        39686
#        58069
#        78130
#        98483
#        120010
#        139201
#        164931
#        191452
#        210454
#        232506
#        254354
#
# Disc length: 3892 seconds
#
# Revision: 0
# Processed by: cddbd v1.5.2PL0 Copyright (c) Steve Scherf et al.
# Submitted via: ExactAudioCopy v1.0b4
#
DISCID=a20f320d
DTITLE=Mr. Sipp - Knock A Hole In It
DYEAR=2017
DGENRE=Blues
TTITLE0=Knock A Hole In It
TTITLE1=Bad Feeling
TTITLE2=Stalking Me
TTITLE3=Sea Of Love
TTITLE4=Gotta Let Her Go
TTITLE5=Going Down
TTITLE6=Baby Your Mine
TTITLE7=Juke Joint
TTITLE8=Strings Attached
TTITLE9=Turn Up
TTITLE10=Love Don't Live Here Anymore
TTITLE11=Love Yourself
TTITLE12=Little Wing
EXTD=
EXTT0=
EXTT1=
EXTT2=
EXTT3=
EXTT4=
EXTT5=
EXTT6=
EXTT7=
EXTT8=
EXTT9=
EXTT10=
EXTT11=
EXTT12=
PLAYORDER=
